Coordinates
version=1
nRows=19
nColumns=63
inDegrees=yes

Units are S.I. units (second, meters, Newtons, ...)
If the header above contains a line with 'inDegrees', this indicates whether rotational values are in degrees (yes) or radians (no).

endheader
time	pelvis_tilt	pelvis_list	pelvis_rotation	pelvis_tx	pelvis_ty	pelvis_tz	hip_flexion_r	hip_adduction_r	hip_rotation_r	knee_angle_r	knee_angle_r_beta	ankle_angle_r	subtalar_angle_r	mtp_angle_r	hip_flexion_l	hip_adduction_l	hip_rotation_l	knee_angle_l	knee_angle_l_beta	ankle_angle_l	subtalar_angle_l	mtp_angle_l	L5_S1_Flex_Ext	L5_S1_Lat_Bending	L5_S1_axial_rotation	L4_L5_Flex_Ext	L4_L5_Lat_Bending	L4_L5_axial_rotation	L3_L4_Flex_Ext	L3_L4_Lat_Bending	L3_L4_axial_rotation	L2_L3_Flex_Ext	L2_L3_Lat_Bending	L2_L3_axial_rotation	L1_L2_Flex_Ext	L1_L2_Lat_Bending	L1_L2_axial_rotation	L1_T12_Flex_Ext	L1_T12_Lat_Bending	L1_T12_axial_rotation	Abs_r3	Abs_r2	Abs_r1	Abs_t1	Abs_t2	neck_flexion	neck_bending	neck_rotation	arm_flex_r	arm_add_r	arm_rot_r	elbow_flex_r	pro_sup_r	wrist_flex_r	wrist_dev_r	arm_flex_l	arm_add_l	arm_rot_l	elbow_flex_l	pro_sup_l	wrist_flex_l	wrist_dev_l
3.291667	-1.550256	-9.489942	96.615584	0.196862	1.002692	0.481443	12.878097	-4.633760	-6.172479	18.405320	0.321233	24.664746	-1.185536	0.000000	10.299294	2.885891	-13.007604	10.058209	0.175549	27.921718	11.543749	0.000000	0.149108	0.148651	-0.959850	0.276908	0.197706	-1.019841	0.244969	0.361431	-1.019841	0.170415	0.361431	-0.839869	0.138462	0.303130	-0.779878	0.085200	0.230261	-0.719887	1.065062	1.681574	-5.338398	0.000000	0.000000	26.213074	1.060454	7.278940	-3.378273	-10.204292	17.934369	90.826004	88.414723	-5.905884	14.309531	-4.384546	-13.315608	19.956023	86.565033	89.149212	-8.652518	18.521737
3.312500	-1.420014	-9.424305	96.942209	0.195661	1.003243	0.482002	12.772564	-4.612515	-6.564856	18.320423	0.319752	24.433886	-1.011734	0.000000	10.252637	2.822476	-12.939087	9.977721	0.174144	27.880611	11.951445	0.000000	0.154314	0.186786	-1.025256	0.286576	0.248426	-1.089335	0.253522	0.454152	-1.089335	0.176365	0.454152	-0.897099	0.143296	0.380895	-0.833021	0.088175	0.289332	-0.768942	1.102248	2.112964	-5.702167	0.000000	0.000000	25.460334	1.111665	9.218993	-5.270969	-10.917190	16.822256	91.970937	88.424887	-5.556269	14.557713	-2.390101	-13.010869	19.821458	88.415646	88.183320	-7.711825	18.003012
3.333333	-1.283444	-9.236343	97.215386	0.194247	1.003864	0.482220	12.520073	-4.578884	-6.935922	18.243184	0.318404	24.259524	-0.804891	0.000000	10.023323	2.756673	-12.874457	9.841489	0.171766	27.873399	12.346853	0.000000	0.153651	0.228519	-1.058172	0.285345	0.303930	-1.124308	0.252433	0.555620	-1.124308	0.175607	0.555620	-0.925901	0.142680	0.465995	-0.859765	0.087796	0.353975	-0.793629	1.097512	2.585048	-5.885238	0.000000	0.000000	24.501139	1.075335	11.305699	-7.494388	-11.729974	15.239585	92.921322	88.328019	-5.064183	14.792029	0.613527	-12.532852	19.933971	90.032858	86.874051	-7.052695	17.073908
3.354167	-1.153996	-8.933078	97.433596	0.192653	1.004553	0.482068	12.124276	-4.552026	-7.339170	18.167961	0.317091	24.180828	-0.456572	0.000000	9.608923	2.704684	-12.769985	9.630824	0.168090	27.872697	12.681625	0.000000	0.148304	0.269133	-1.065700	0.275416	0.357947	-1.132306	0.243649	0.654371	-1.132306	0.169497	0.654371	-0.932488	0.137715	0.548817	-0.865881	0.084741	0.416888	-0.799275	1.059323	3.044491	-5.927104	0.000000	0.000000	23.307737	1.005504	13.431260	-9.932933	-12.610275	13.341437	93.631973	88.162953	-4.475512	14.957266	4.674551	-11.849877	20.197866	91.435722	85.617336	-6.671799	15.939013
3.375000	-1.023630	-8.518828	97.600317	0.190928	1.005332	0.481522	11.581130	-4.501615	-7.698058	18.067348	0.315335	24.176180	-0.066562	0.000000	9.007682	2.649103	-12.666573	9.334038	0.162910	27.854030	13.014034	0.000000	0.138924	0.307081	-1.052248	0.257996	0.408418	-1.118014	0.228239	0.746638	-1.118014	0.158777	0.746638	-0.920717	0.129005	0.626200	-0.854952	0.079381	0.475669	-0.789186	0.992323	3.473765	-5.852290	0.000000	0.000000	21.869192	0.961952	15.538381	-12.471567	-13.493330	11.220347	94.092596	87.955262	-3.814979	15.196284	9.789715	-10.922348	20.624150	92.547056	84.487475	-6.676103	14.411628
3.395833	-0.913933	-8.015131	97.751076	0.189089	1.006201	0.480643	10.918752	-4.470905	-8.150362	17.956234	0.313395	24.267593	0.481872	0.000000	8.259064	2.614575	-12.507135	8.975105	0.156645	27.796327	13.285497	0.000000	0.126130	0.336787	-1.029456	0.234235	0.447926	-1.093797	0.207218	0.818863	-1.093797	0.144154	0.818863	-0.900774	0.117124	0.686775	-0.836433	0.072070	0.521683	-0.772092	0.900931	3.809798	-5.725525	0.000000	0.000000	20.215099	0.959896	17.496366	-14.960861	-14.334739	9.082749	94.227141	87.707055	-3.283923	15.303189	15.868260	-9.727836	21.113832	93.455705	83.533708	-6.879235	12.911544
3.416667	-0.818591	-7.455620	97.874843	0.187176	1.007154	0.479491	10.177079	-4.446218	-8.653578	17.828828	0.311172	24.413163	1.136008	0.000000	7.400847	2.592362	-12.317945	8.548669	0.149202	27.681376	13.511285	0.000000	0.111959	0.358115	-0.990660	0.207920	0.476293	-1.052576	0.183938	0.870720	-1.052576	0.127958	0.870720	-0.866828	0.103965	0.730268	-0.804911	0.063974	0.554720	-0.742995	0.799714	4.051067	-5.509755	0.000000	0.000000	18.404199	0.953219	19.199145	-17.318841	-15.055826	6.923675	94.050081	87.451661	-2.752220	15.387854	22.793549	-8.253651	21.756062	94.170613	82.771972	-7.427958	11.552944
3.437500	-0.748165	-6.866039	97.997425	0.185255	1.008189	0.478126	9.382811	-4.445686	-9.239070	17.687324	0.308702	24.592863	1.876013	0.000000	6.476221	2.592790	-12.115642	8.079077	0.141006	27.501933	13.712627	0.000000	0.095826	0.368910	-0.944428	0.177959	0.490650	-1.003455	0.157433	0.896968	-1.003455	0.109520	0.896968	-0.826375	0.088984	0.752281	-0.767348	0.054755	0.571442	-0.708321	0.684479	4.173183	-5.252627	0.000000	0.000000	16.524613	0.948921	20.582147	-19.454270	-15.578438	4.856667	93.533931	87.224802	-2.309954	15.284937	30.328537	-6.482760	22.411244	94.735618	82.231596	-8.126075	10.653060
3.458333	-0.691868	-6.277445	98.144158	0.183350	1.009288	0.476631	8.569270	-4.458926	-9.920451	17.529254	0.305943	24.773909	2.658455	0.000000	5.541021	2.602257	-11.893890	7.597157	0.132595	27.278876	13.911120	0.000000	0.078605	0.371341	-0.891772	0.145978	0.493884	-0.947508	0.129141	0.902879	-0.947508	0.089838	0.902879	-0.780300	0.072993	0.757239	-0.724565	0.044915	0.575208	-0.668829	0.561470	4.200687	-4.959768	0.000000	0.000000	14.645321	0.949612	21.613045	-21.354387	-15.886064	2.886697	92.762116	87.044745	-1.890686	14.965401	38.281822	-4.508638	23.138108	95.089078	81.921084	-9.086904	10.149248
3.479167	-0.660779	-5.714310	98.289086	0.181588	1.010420	0.475126	7.785937	-4.492741	-10.608487	17.378544	0.303313	24.930123	3.369984	0.000000	4.643461	2.631235	-11.672766	7.138204	0.124585	27.027495	14.084457	0.000000	0.059003	0.364374	-0.829481	0.109574	0.484618	-0.881323	0.096935	0.885939	-0.881323	0.067434	0.885939	-0.725795	0.054790	0.743032	-0.673953	0.033714	0.564416	-0.622110	0.421449	4.121873	-4.613322	0.000000	0.000000	12.869219	0.939139	22.209762	-23.008219	-15.978558	1.051068	91.826550	86.910644	-1.503260	14.356749	46.454239	-2.416744	23.894536	95.163601	81.847602	-10.137578	10.267509
3.500000	-0.654441	-5.194957	98.440335	0.179994	1.011547	0.473742	7.060003	-4.550735	-11.304973	17.241940	0.300929	25.032784	3.974821	0.000000	3.821650	2.681392	-11.453432	6.725162	0.117376	26.761641	14.234964	0.000000	0.037636	0.349117	-0.763280	0.069894	0.464326	-0.810985	0.061833	0.848843	-0.810985	0.043014	0.848843	-0.667870	0.034949	0.711919	-0.620165	0.021505	0.540782	-0.572460	0.268832	3.949281	-4.245132	0.000000	0.000000	11.240524	0.931209	22.371906	-24.425055	-15.882948	-0.624641	90.866718	86.815002	-1.143367	13.563150	54.617799	-0.314744	24.657116	94.879908	82.009581	-11.266792	10.949810
3.520833	-0.685882	-4.720407	98.583014	0.178607	1.012629	0.472547	6.402753	-4.646055	-11.984311	17.135238	0.299066	25.066935	4.453675	0.000000	3.082822	2.762703	-11.267412	6.370234	0.111182	26.496672	14.382108	0.000000	0.014312	0.323807	-0.688285	0.026580	0.430663	-0.731303	0.023514	0.787304	-0.731303	0.016358	0.787304	-0.602249	0.013291	0.660307	-0.559231	0.008178	0.501577	-0.516214	0.102233	3.662970	-3.828033	0.000000	0.000000	9.790009	0.978332	21.983634	-25.638168	-15.580639	-2.182989	90.036175	86.735187	-0.763957	12.940906	62.563717	1.739506	25.456423	94.158715	82.404697	-12.647844	12.045184
3.541667	-0.746868	-4.281876	98.704201	0.177467	1.013672	0.471580	5.807391	-4.762807	-12.642641	17.052590	0.297624	25.021904	4.826820	0.000000	2.415635	2.861030	-11.101728	6.065208	0.105858	26.236926	14.494393	0.000000	-0.011984	0.291701	-0.615563	-0.022255	0.387962	-0.654036	-0.019688	0.709241	-0.654036	-0.013696	0.709241	-0.538618	-0.011128	0.594836	-0.500145	-0.006848	0.451844	-0.461672	-0.085600	3.299777	-3.423578	0.000000	0.000000	8.530740	1.058473	21.214599	-26.599959	-15.174482	-3.481642	89.354630	86.686486	-0.422296	12.349351	70.093908	3.548519	26.238021	93.103841	83.018847	-14.013587	13.607418
3.562500	-0.843607	-3.887308	98.778555	0.176601	1.014655	0.470792	5.284587	-4.905435	-13.242683	16.995095	0.296620	24.907614	5.103723	0.000000	1.812601	2.985128	-10.984884	5.789645	0.101048	25.982538	14.576104	0.000000	-0.038398	0.254046	-0.542544	-0.071310	0.337881	-0.576453	-0.063085	0.617687	-0.576453	-0.043886	0.617687	-0.474726	-0.035657	0.518050	-0.440817	-0.021941	0.393517	-0.406908	-0.274276	2.873818	-3.017465	0.000000	0.000000	7.481392	1.104791	20.100211	-27.335613	-14.700077	-4.511887	88.892310	86.670695	-0.111291	11.906117	77.014008	4.987183	26.960119	91.871577	83.821042	-15.356423	15.602406
3.583333	-0.967297	-3.534752	98.824755	0.175982	1.015573	0.470087	4.815925	-5.060258	-13.776635	16.943197	0.295715	24.746508	5.272386	0.000000	1.265670	3.127363	-10.893913	5.543349	0.096750	25.752058	14.621120	0.000000	-0.062240	0.213871	-0.479516	-0.115585	0.284448	-0.509485	-0.102253	0.520005	-0.509485	-0.071134	0.520005	-0.419576	-0.057796	0.436125	-0.389607	-0.035564	0.331286	-0.359637	-0.444571	2.419348	-2.666923	0.000000	0.000000	6.592574	1.156600	18.804637	-27.848727	-14.238140	-5.204678	88.647968	86.690888	0.110435	11.464131	83.176439	5.902628	27.550215	90.695307	84.781740	-16.554810	18.002889
3.604167	-1.085473	-3.238338	98.825165	0.175601	1.016398	0.469441	4.413718	-5.198787	-14.262335	16.879710	0.294607	24.540776	5.419013	0.000000	0.792629	3.255218	-10.846251	5.331759	0.093057	25.548136	14.615971	0.000000	-0.082226	0.178567	-0.420880	-0.152702	0.237495	-0.447185	-0.135089	0.434169	-0.447185	-0.093976	0.434169	-0.368270	-0.076355	0.364135	-0.341965	-0.046984	0.276601	-0.315660	-0.587331	2.019990	-2.340809	0.000000	0.000000	5.922993	1.173519	17.545194	-28.190584	-13.808691	-5.652212	88.675327	86.757617	0.277181	11.082993	88.516561	6.214046	27.924938	89.758494	85.878152	-17.396851	20.678557
3.625000	-1.207205	-3.014538	98.798565	0.175433	1.017095	0.468808	4.093078	-5.330489	-14.668351	16.812493	0.293433	24.322347	5.494602	0.000000	0.407003	3.381564	-10.845514	5.157829	0.090021	25.373753	14.583779	0.000000	-0.096826	0.149521	-0.368357	-0.179816	0.198863	-0.391379	-0.159075	0.363546	-0.391379	-0.110662	0.363546	-0.322312	-0.089913	0.304903	-0.299290	-0.055326	0.231608	-0.276268	-0.691619	1.691413	-2.048691	0.000000	0.000000	5.502956	1.128826	16.488182	-28.411315	-13.433880	-5.860271	88.956063	86.865218	0.327808	10.535554	92.974170	5.851142	27.992742	89.259706	87.089872	-17.860636	23.601340
3.645833	-1.322070	-2.866778	98.717176	0.175470	1.017651	0.468196	3.865870	-5.449352	-14.990381	16.745205	0.292259	24.121894	5.578464	0.000000	0.115022	3.498301	-10.883575	5.024955	0.087702	25.225058	14.476280	0.000000	-0.106775	0.130403	-0.307198	-0.198292	0.173435	-0.326398	-0.175421	0.317061	-0.326398	-0.122033	0.317061	-0.268798	-0.099151	0.265917	-0.249599	-0.061011	0.201994	-0.230399	-0.762684	1.475140	-1.708545	0.000000	0.000000	5.364158	0.989625	15.682057	-28.592310	-13.100422	-5.958710	89.499529	87.013839	0.395358	9.792544	96.492165	4.831982	27.610310	89.285009	88.303300	-17.716010	26.486634
3.666667	-1.402754	-2.793254	98.591568	0.175657	1.018071	0.467615	3.728205	-5.525878	-15.210316	16.664761	0.290855	23.948425	5.656516	0.000000	-0.079638	3.581394	-10.950045	4.931511	0.086071	25.104908	14.300932	0.000000	-0.112384	0.126604	-0.232336	-0.208709	0.168384	-0.246857	-0.184636	0.307826	-0.246857	-0.128444	0.307826	-0.203294	-0.104360	0.258171	-0.188773	-0.064216	0.196110	-0.174252	-0.802750	1.432173	-1.292184	0.000000	0.000000	5.521344	0.739934	15.196960	-28.822439	-12.795380	-6.055070	90.295956	87.186858	0.496783	8.787833	99.022109	3.203645	26.629833	89.931557	89.210221	-17.030813	29.252620
